<mxfile host="Electron" modified="2024-02-27T08:03:07.736Z" agent="Mozilla/5.0 (Windows NT 10.0; Win64; x64) AppleWebKit/537.36 (KHTML, like Gecko) draw.io/23.1.5 Chrome/120.0.6099.109 Electron/28.1.0 Safari/537.36" etag="pQj4RkMNzti2IvLbLVAf" version="23.1.5" type="device">
  <diagram name="Page-1" id="aumsdkWpHWCwQ4oLyEgD">
    <mxGraphModel dx="1674" dy="836" grid="1" gridSize="10" guides="1" tooltips="1" connect="1" arrows="1" fold="1" page="1" pageScale="1" pageWidth="850" pageHeight="1100" math="0" shadow="0">
      <root>
        <mxCell id="0" />
        <mxCell id="1" parent="0" />
        <mxCell id="rnJcGfW2YAjB4ZYxm2iY-1" value="&lt;div style=&quot;text-align: justify;&quot;&gt;&amp;nbsp;BEGIN PROGRAM&lt;/div&gt;&lt;div style=&quot;text-align: justify;&quot;&gt;At AccountRepository&lt;/div&gt;&lt;div style=&quot;text-align: justify;&quot;&gt;&amp;nbsp; &amp;nbsp; &amp;nbsp; &amp;nbsp; &amp;nbsp;Extend interface JpaRepository&lt;/div&gt;&lt;div style=&quot;text-align: justify;&quot;&gt;&amp;nbsp; &amp;nbsp; &amp;nbsp; &amp;nbsp; &amp;nbsp;Call method findAccountById(id) that has an id parameter of data type Integer and has return data type of Optional&amp;lt;Account&amp;gt;&lt;/div&gt;&lt;div style=&quot;text-align: justify;&quot;&gt;&amp;nbsp; &amp;nbsp; &amp;nbsp; &amp;nbsp; &amp;nbsp; Get database connection&amp;nbsp; &amp;nbsp;&lt;/div&gt;&lt;div style=&quot;text-align: justify;&quot;&gt;SELECT id, account_name, full_name, phone_number, address, gender, password, role_id, facebook_id, google_id, number_id, profilepic, birthday, email, member_code, point, isdelete&lt;/div&gt;&lt;div style=&quot;text-align: justify;&quot;&gt;FROM account&amp;nbsp;&lt;span style=&quot;background-color: initial;&quot;&gt;WHERE id = id;&lt;/span&gt;&lt;/div&gt;&lt;div style=&quot;text-align: justify;&quot;&gt;&amp;nbsp; &amp;nbsp; &amp;nbsp; &amp;nbsp; &amp;nbsp; Execute SQL&lt;/div&gt;&lt;div style=&quot;text-align: justify;&quot;&gt;&amp;nbsp; &amp;nbsp; &amp;nbsp; &amp;nbsp; &amp;nbsp; Close database connection&lt;/div&gt;&lt;div style=&quot;text-align: justify;&quot;&gt;At IAccountService&amp;nbsp;&lt;/div&gt;&lt;div style=&quot;text-align: justify;&quot;&gt;&amp;nbsp; &amp;nbsp; Declare method findAccountById(id) that has an id parameter of data type Integer and has a return data type of Optional&amp;lt;Account&amp;gt;&lt;/div&gt;&lt;div style=&quot;text-align: justify;&quot;&gt;At AccountServiceImpl&amp;nbsp;&lt;/div&gt;&lt;div style=&quot;text-align: justify;&quot;&gt;&amp;nbsp; &amp;nbsp;Implement interface IAccountService&lt;/div&gt;&lt;div style=&quot;text-align: justify;&quot;&gt;&amp;nbsp; &amp;nbsp;Inject accountRepository that data type is AccountRepository&lt;/div&gt;&lt;div style=&quot;text-align: justify;&quot;&gt;&amp;nbsp; &amp;nbsp;Call method findAccountById(id) that has an id parameter of data type Integer and has a return data type of Account&amp;nbsp;&lt;/div&gt;&lt;div style=&quot;text-align: justify;&quot;&gt;&amp;nbsp; &amp;nbsp; &amp;nbsp; &amp;nbsp;Call method findAccountById(id) of accountRepository instance . This method has an id parameter of data type of Optional&amp;lt;Account&amp;gt;&lt;/div&gt;&lt;div style=&quot;text-align: justify;&quot;&gt;&amp;nbsp; &amp;nbsp; &amp;nbsp; if result has value&amp;nbsp;&lt;/div&gt;&lt;div style=&quot;text-align: justify;&quot;&gt;&amp;nbsp; &amp;nbsp; &amp;nbsp; then return result&amp;nbsp;&lt;/div&gt;&lt;div style=&quot;text-align: justify;&quot;&gt;&amp;nbsp; &amp;nbsp; &amp;nbsp; else return null&lt;/div&gt;&lt;div style=&quot;text-align: justify;&quot;&gt;At AccountController&lt;/div&gt;&lt;div style=&quot;text-align: justify;&quot;&gt;&amp;nbsp; &amp;nbsp; &amp;nbsp; &amp;nbsp;Inject accountService that data type is IAccountService&lt;/div&gt;&lt;div style=&quot;text-align: justify;&quot;&gt;&amp;nbsp; &amp;nbsp; &amp;nbsp; &amp;nbsp;Call method getAccount(id) that has an id parameter of data type Integer and has a return data type of Account&lt;/div&gt;&lt;div style=&quot;text-align: justify;&quot;&gt;&amp;nbsp; &amp;nbsp; &amp;nbsp; &amp;nbsp;Call method findAccountById(id) of accountService instance. This method has an id parameter of data type Integer and has a return data type of Account&lt;/div&gt;&lt;div style=&quot;text-align: justify;&quot;&gt;&amp;nbsp; &amp;nbsp; &amp;nbsp; &amp;nbsp; &amp;nbsp;if result = null&lt;/div&gt;&lt;div style=&quot;text-align: justify;&quot;&gt;&amp;nbsp; &amp;nbsp; &amp;nbsp; &amp;nbsp; then return instance ResponseEntity with status code NOT_FOUND only&amp;nbsp;&lt;/div&gt;&lt;div style=&quot;text-align: justify;&quot;&gt;&amp;nbsp; &amp;nbsp; &amp;nbsp; &amp;nbsp; else return instance of ResponseEntity with result in entity body and status code OK&lt;/div&gt;&lt;div style=&quot;text-align: justify;&quot;&gt;END PROGRAM&lt;/div&gt;&lt;div style=&quot;text-align: justify;&quot;&gt;&amp;nbsp; &amp;nbsp; &amp;nbsp; &amp;nbsp;&lt;/div&gt;&lt;div style=&quot;text-align: justify;&quot;&gt;&lt;br&gt;&lt;/div&gt;&lt;div style=&quot;text-align: justify;&quot;&gt;&amp;nbsp;&lt;/div&gt;&lt;div style=&quot;text-align: justify;&quot;&gt;&lt;br&gt;&lt;/div&gt;" style="text;html=1;align=left;verticalAlign=middle;whiteSpace=wrap;rounded=0;" parent="1" vertex="1">
          <mxGeometry x="220" y="380" width="1000" height="340" as="geometry" />
        </mxCell>
      </root>
    </mxGraphModel>
  </diagram>
</mxfile>
